<svg xmlns="http://www.w3.org/2000/svg" viewBox="0 0 24 24">
    <path d="M20.043 7.6931h-0.56627v-2.5754a2.1099 2.1099 0 0 0-2.1099-2.1177h-11.054a3.1028 3.1028 0 0 0-3.1028 3.1028 1.8617 1.8617 0 0 0 0 0.2172 0.62057 0.62057 0 0 0 0 0.11636v8.176a4.2587 4.2587 0 1 0 6.865 4.6543h9.9679a2.1177 2.1177 0 0 0 2.1177-2.1177v-7.3693a2.1099 2.1099 0 0 0-2.1177-2.0867zm-13.73-3.1416h11.054a0.56627 0.56627 0 0 1 0.55851 0.56627v2.5754h-11.613a1.5709 1.5709 0 1 1 0-3.1416zm-0.23271 15.902a2.715 2.715 0 0 1-2.715-2.715 2.6529 2.6529 0 0 1 1.0782-2.1565 2.5986 2.5986 0 0 1 1.6368-0.55851 2.715 2.715 0 0 1 2.715 2.715 2.7227 2.7227 0 0 1-2.715 2.715zm13.963-2.715h-9.6964a4.2664 4.2664 0 0 0-5.6084-4.0492v-4.8715a3.1028 3.1028 0 0 0 1.5514 0.44216h13.754a0.56627 0.56627 0 0 1 0.56627 0.55851v1.3265h-2.684a2.684 2.684 0 0 0 0 5.3602h2.684v0.66711a0.56627 0.56627 0 0 1-0.56627 0.56627zm0.56627-5.0421v2.2573h-2.684a1.1325 1.1325 0 0 1 0-2.2573zm-12.589 5.0421a0.77571 0.77571 0 0 1-0.77571 0.77571h-0.38786v0.38786a0.77571 0.77571 0 0 1-1.5514 0v-0.38786h-0.38786a0.77571 0.77571 0 0 1 0-1.5514h0.38786v-0.38786a0.77571 0.77571 0 0 1 1.5514 0v0.38786h0.38786a0.77571 0.77571 0 0 1 0.77571 0.77571z" />
</svg>
