<svg xmlns="http://www.w3.org/2000/svg" viewBox="0 0 24 24">
    <path d="m20.024 7.6867h-0.56551v-2.5719a2.1071 2.1071 0 0 0-2.1071-2.1148h-11.04a3.0987 3.0987 0 0 0-3.0987 3.0987 2.2078 2.2078 0 0 0 0 0.22465 0.54227 0.54227 0 0 0 0 0.10845v9.3735a3.455 3.455 0 0 0 3.4318 3.4628h13.378a2.1148 2.1148 0 0 0 2.1148-2.1148v-7.3593a2.1148 2.1148 0 0 0-2.1148-2.1071zm-13.712-3.1374h11.04a0.56551 0.56551 0 0 1 0.55776 0.56551v2.5719h-11.597a1.5688 1.5688 0 1 1 0-3.1374zm13.712 13.169h-13.378a1.9057 1.9057 0 0 1-1.9057-1.8979v-7.0107a3.0987 3.0987 0 0 0 1.5493 0.44156h13.735a0.56551 0.56551 0 0 1 0.56551 0.55776v1.3247h-2.6803a2.6803 2.6803 0 0 0 0 5.3529h2.6803v0.66621a0.56551 0.56551 0 0 1-0.56551 0.56551zm0.56551-2.7811h-2.6803a1.131 1.131 0 0 1 0-2.2543h2.6803z" />
</svg>
