<svg xmlns="http://www.w3.org/2000/svg" viewBox="0 0 24 24">
    <path d="M10.381 2.1c-0.77168 0-1.4408 0.56711-1.5676 1.3282l-0.17461 1.0477c-0.11726 0.70363-0.80733 1.1018-1.4754 0.85149l-0.99471-0.37277c-0.7226-0.27069-1.5467 0.026327-1.9325 0.69453l-1.6186 2.8017c-0.37894 0.65641-0.22261 1.4948 0.34727 1.9894v0.01766l0.019619 0.0157 0.81813 0.67491c0.5507 0.45336 0.55068 1.2496 0 1.703l-0.81813 0.67491c-0.59573 0.49044-0.75265 1.3545-0.36688 2.0228l1.6108 2.7899 0.00785 0.01177c0.38583 0.6682 1.2099 0.96523 1.9325 0.69453l0.99471-0.37278c0.66801-0.25025 1.3581 0.14785 1.4754 0.85149l0.17461 1.0477c0.12685 0.76116 0.79597 1.3282 1.5676 1.3282h3.2372c0.77162 0 1.4408-0.56706 1.5676-1.3282l0.17461-1.0477c0.11729-0.70364 0.8074-1.1017 1.4754-0.85149l0.99471 0.37277 0.06671 0.0255v-0.0255c0.70614 0.2291 1.4918-0.04671 1.8658-0.69453l0.0078-0.01177 1.597-2.7663 0.01373-0.02355c0.38577-0.66823 0.22885-1.5323-0.36689-2.0228l-0.80047-0.65922-0.01766-0.0157c-0.55076-0.45339-0.55075-1.2496 0-1.703l0.81813-0.67491 0.01962-0.0157v-0.01766c0.5699-0.49453 0.72624-1.3329 0.3473-1.9894l-0.013722-0.023529-1.6049-2.7781c-0.38581-0.66819-1.2099-0.96526-1.9325-0.69453l-0.99471 0.37277c-0.66799 0.25025-1.3581-0.14788-1.4754-0.85149l-0.17461-1.0477c-0.12684-0.76114-0.79591-1.3282-1.5676-1.3282zm0 1.5892v0.049049l-0.0078-0.00785zm0.04316 0.05101h3.1509l0.16677 1.0006v0.00393c0.28117 1.6869 2.0674 2.7188 3.6688 2.1189l0.95351-0.35708 1.5774 2.7271-0.78674 0.64744c-1.3204 1.0869-1.3204 3.1509 0 4.2378l0.78674 0.64744-1.5754 2.7291-0.95547-0.35904c-0.0026-9.9e-4 -0.0052-9.35e-4 -0.0078-2e-3h-0.0098c-1.5969-0.58588-3.3711 0.44022-3.6512 2.1209l-0.16677 1.0045h-3.151l-0.16677-1.0045c-0.28107-1.6868-2.0674-2.7189-3.6688-2.1189l-0.95547 0.35904-1.5754-2.7291 0.78674-0.64744c1.3116-1.0798 1.3139-3.1198 0.019619-4.2123v-0.00981l-0.019619-0.015695-0.78674-0.64744 1.5774-2.7271 0.95351 0.35707 0.066706 0.025505v-0.017658c1.584 0.54755 3.3249-0.46313 3.6021-2.1268v-0.00393zm1.5754 4.4144c-2.1148 0-3.8454 1.7306-3.8454 3.8454 0 2.1148 1.7306 3.8454 3.8454 3.8454 2.1148 0 3.8474-1.7306 3.8474-3.8454 0-2.1148-1.7326-3.8454-3.8474-3.8454zm0 1.6382c1.229 0 2.2072 0.97822 2.2072 2.2072 0 1.229-0.97817 2.2072-2.2072 2.2072-1.229 0-2.2072-0.97822-2.2072-2.2072 0-1.229 0.97825-2.2072 2.2072-2.2072z" />
</svg>
