<svg xmlns="http://www.w3.org/2000/svg" viewBox="0 0 156 48">
    <path d="M8.168 30.785h2.9531v-12.68h-3.2695v8.8945q-0.15234 0.30469-0.36328 0.55078t-0.48047 0.42188q-0.31641 0.19922-0.73828 0.30469-0.41016 0.10547-0.92578 0.10547-0.57422 0-0.97266-0.14062-0.39844-0.14062-0.64453-0.46875-0.24609-0.31641-0.36328-0.84375-0.10547-0.52734-0.10547-1.3008v-7.5234h-3.2578v7.5q0 1.4414 0.31641 2.4727 0.32812 1.0195 0.91406 1.6758 0.58594 0.66797 1.4063 0.97266 0.82031 0.30469 1.8047 0.30469 1.0781 0 1.9805-0.53906 0.91406-0.53906 1.5586-1.4883zm14.309-3.4805q0 0.29297-0.15234 0.53906-0.14062 0.24609-0.43359 0.43359-0.30469 0.1875-0.78516 0.30469-0.46875 0.10547-1.1016 0.10547-0.52734 0-1.0312-0.10547-0.49219-0.10547-0.87891-0.33984-0.38672-0.22266-0.63281-0.58594-0.24609-0.375-0.28125-0.89062h-3.1055q0 0.77344 0.375 1.5469 0.38672 0.76172 1.125 1.3594 0.73828 0.60938 1.8281 0.98438 1.1016 0.375 2.5312 0.375 1.3008 0 2.3555-0.28125 1.0547-0.29297 1.8047-0.80859 0.73828-0.51562 1.1367-1.2188 0.41016-0.71484 0.41016-1.5586 0-0.91406-0.41016-1.5703-0.39844-0.66797-1.1133-1.1367-0.71484-0.45703-1.6992-0.75t-2.1328-0.48047q-0.79688-0.11719-1.3125-0.26953-0.51562-0.16406-0.80859-0.36328-0.30469-0.1875-0.42188-0.42188-0.11719-0.24609-0.11719-0.52734t0.12891-0.52734q0.14062-0.25781 0.39844-0.44531 0.28125-0.21094 0.72656-0.32812 0.44531-0.11719 1.043-0.11719 0.70312 0 1.1953 0.17578 0.50391 0.17578 0.79688 0.46875 0.21094 0.22266 0.31641 0.50391 0.10547 0.26953 0.10547 0.58594h3.2578q0-0.87891-0.38672-1.6289t-1.1133-1.3008q-0.73828-0.53906-1.793-0.84375-1.0547-0.31641-2.3789-0.31641-1.2656 0-2.2734 0.31641-1.0078 0.31641-1.7109 0.85547-0.70312 0.53906-1.0781 1.2539t-0.375 1.5q0 0.80859 0.36328 1.4297 0.375 0.62109 1.0312 1.0898 0.65625 0.48047 1.5703 0.82031 0.92578 0.32812 2.0391 0.55078 0.87891 0.16406 1.4531 0.32812 0.57422 0.16406 0.92578 0.35156 0.33984 0.19922 0.46875 0.42188 0.14062 0.22266 0.14062 0.51562zm12.375 3.7148q1.8398 0 3.1875-0.71484 1.3477-0.71484 1.9688-1.5938l-1.6289-1.7578q-0.5625 0.72656-1.4648 1.0898-0.90234 0.36328-1.8633 0.36328-0.67969 0-1.2539-0.21094-0.57422-0.21094-1.0195-0.59766-0.43359-0.375-0.69141-0.83203-0.25781-0.46875-0.42188-1.2305v-0.035156h8.6016v-1.3828q0-1.3945-0.38672-2.543-0.38672-1.1602-1.125-1.9805-0.75-0.82031-1.8281-1.2656-1.0664-0.45703-2.4375-0.45703-1.3242 0-2.4492 0.48047-1.125 0.48047-1.9453 1.3477-0.82031 0.86719-1.2773 2.0742-0.45703 1.1953-0.45703 2.6484v0.46875q0 1.2773 0.45703 2.4023 0.46875 1.1133 1.3242 1.9336 0.85547 0.83203 2.0508 1.3125 1.1953 0.48047 2.6602 0.48047zm-0.38672-10.512q0.62109 0 1.0898 0.19922 0.48047 0.1875 0.80859 0.51562 0.32812 0.33984 0.51562 0.79688t0.1875 0.97266v0.25781h-5.3438q0.11719-0.62109 0.35156-1.125t0.58594-0.86719q0.33984-0.36328 0.79688-0.55078 0.45703-0.19922 1.0078-0.19922zm17.742-2.6367q-1.2773 0-2.3555 0.62109-1.0781 0.60938-1.8516 1.6875l-0.02344-0.28125-0.12891-1.793h-3.0352v12.68h3.2578v-7.6172q0.22266-0.53906 0.5625-0.9375 0.33984-0.39844 0.82031-0.65625 0.39844-0.22266 0.90234-0.32812 0.51562-0.11719 1.1484-0.11719 0.60938 0 1.2773 0.08203 0.67969 0.07031 1.3242 0.22266l0.48047-3.2461q-0.38672-0.11719-1.0195-0.21094-0.62109-0.10547-1.3594-0.10547zm10.91 10.547q-0.78516 0-1.3008-0.31641-0.50391-0.31641-0.79688-0.84375-0.30469-0.51562-0.42188-1.1953-0.11719-0.69141-0.11719-1.4297v-0.35156q0-0.72656 0.11719-1.4062 0.12891-0.67969 0.43359-1.207 0.29297-0.52734 0.79688-0.84375 0.50391-0.31641 1.2773-0.31641 0.52734 0 0.97266 0.1875 0.44531 0.17578 0.76172 0.48047 0.31641 0.30469 0.48047 0.72656 0.16406 0.42188 0.14062 0.89062h3.0703q0.02344-1.125-0.375-2.0273-0.39844-0.91406-1.1133-1.5586-0.72656-0.63281-1.7227-0.98438-0.99609-0.35156-2.168-0.35156-1.4648 0-2.5781 0.50391-1.1016 0.50391-1.8516 1.3711-0.75 0.86719-1.125 2.0391-0.375 1.1602-0.375 2.4961v0.35156q0 1.3359 0.375 2.5078 0.38672 1.1602 1.1367 2.0273 0.73828 0.86719 1.8516 1.3711 1.1133 0.49219 2.5898 0.49219 1.0898 0 2.0625-0.33984 0.98438-0.35156 1.7227-0.96094 0.73828-0.60938 1.1602-1.4531 0.43359-0.84375 0.41016-1.8281h-3.0703q0.02344 0.44531-0.16406 0.80859-0.17578 0.36328-0.50391 0.62109-0.32812 0.25781-0.76172 0.39844t-0.91406 0.14062zm8.3438-4.0898v0.24609q0 1.3945 0.39844 2.5781 0.39844 1.1719 1.1719 2.0391 0.76172 0.86719 1.875 1.3594 1.125 0.48047 2.5547 0.48047 1.418 0 2.5312-0.48047 1.1133-0.49219 1.875-1.3594 0.76172-0.86719 1.1602-2.0391 0.39844-1.1836 0.39844-2.5781v-0.24609q0-1.3828-0.39844-2.5547-0.39844-1.1836-1.1602-2.0508-0.77344-0.86719-1.8867-1.3594-1.1133-0.49219-2.543-0.49219-1.4297 0-2.543 0.49219-1.1016 0.49219-1.8633 1.3594-0.77344 0.86719-1.1719 2.0508-0.39844 1.1719-0.39844 2.5547zm3.2578 0.24609v-0.24609q0-0.77344 0.15234-1.4648 0.15234-0.69141 0.48047-1.2188t0.84375-0.83203q0.51562-0.30469 1.2422-0.30469 0.73828 0 1.2539 0.30469 0.51562 0.30469 0.84375 0.83203 0.31641 0.52734 0.46875 1.2188t0.15234 1.4648v0.24609q0 0.79688-0.15234 1.5-0.15234 0.69141-0.46875 1.207-0.32812 0.52734-0.84375 0.83203-0.51562 0.30469-1.2305 0.30469-0.73828 0-1.2656-0.30469-0.51562-0.30469-0.84375-0.83203-0.32812-0.51562-0.48047-1.207-0.15234-0.70312-0.15234-1.5zm11.59 6.2109h3.2695v-9.0117q0.16406-0.25781 0.36328-0.46875 0.19922-0.21094 0.44531-0.36328 0.30469-0.21094 0.69141-0.31641 0.39844-0.10547 0.86719-0.10547 0.5625 0 1.0078 0.11719 0.44531 0.10547 0.76172 0.38672 0.31641 0.28125 0.48047 0.77344 0.17578 0.48047 0.17578 1.2305v7.7578h3.2578v-7.8047q0-1.3828-0.32812-2.3438-0.31641-0.97266-0.89062-1.5938-0.58594-0.60938-1.3828-0.89062t-1.7578-0.28125q-0.75 0-1.418 0.21094-0.66797 0.21094-1.2305 0.60938-0.32812 0.23438-0.62109 0.52734t-0.53906 0.64453l-0.19922-1.7578h-2.9531zm20.016-2.3672q-0.78516 0-1.3008-0.31641-0.50391-0.31641-0.79688-0.84375-0.30468-0.51562-0.42187-1.1953-0.11719-0.69141-0.11719-1.4297v-0.35156q0-0.72656 0.11719-1.4062 0.1289-0.67969 0.43359-1.207 0.29297-0.52734 0.79688-0.84375 0.5039-0.31641 1.2773-0.31641 0.52734 0 0.97266 0.1875 0.44531 0.17578 0.76172 0.48047 0.3164 0.30469 0.48046 0.72656 0.16407 0.42188 0.14063 0.89062h3.0703q0.0234-1.125-0.375-2.0273-0.39844-0.91406-1.1133-1.5586-0.72656-0.63281-1.7227-0.98438-0.99609-0.35156-2.168-0.35156-1.4648 0-2.5781 0.50391-1.1016 0.50391-1.8516 1.3711-0.75 0.86719-1.125 2.0391-0.375 1.1602-0.375 2.4961v0.35156q0 1.3359 0.375 2.5078 0.38672 1.1602 1.1367 2.0273 0.73828 0.86719 1.8516 1.3711 1.1133 0.49219 2.5898 0.49219 1.0898 0 2.0625-0.33984 0.98438-0.35156 1.7227-0.96094t1.1602-1.4531q0.43359-0.84375 0.41015-1.8281h-3.0703q0.0234 0.44531-0.16406 0.80859-0.17578 0.36328-0.50391 0.62109-0.32812 0.25781-0.76172 0.39844-0.43359 0.14062-0.91406 0.14062zm14.941 2.6016q1.8398 0 3.1875-0.71484 1.3476-0.71484 1.9688-1.5938l-1.6289-1.7578q-0.5625 0.72656-1.4648 1.0898-0.90235 0.36328-1.8633 0.36328-0.67968 0-1.2539-0.21094-0.57422-0.21094-1.0195-0.59766-0.4336-0.375-0.69141-0.83203-0.25781-0.46875-0.42187-1.2305v-0.035156h8.6016v-1.3828q0-1.3945-0.38672-2.543-0.38672-1.1602-1.125-1.9805-0.75-0.82031-1.8281-1.2656-1.0664-0.45703-2.4375-0.45703-1.3242 0-2.4492 0.48047-1.125 0.48047-1.9453 1.3477-0.82031 0.86719-1.2773 2.0742-0.45703 1.1953-0.45703 2.6484v0.46875q0 1.2773 0.45703 2.4023 0.46875 1.1133 1.3242 1.9336 0.85547 0.83203 2.0508 1.3125 1.1953 0.48047 2.6602 0.48047zm-0.38672-10.512q0.62109 0 1.0898 0.19922 0.48047 0.1875 0.80859 0.51562 0.32813 0.33984 0.51563 0.79688t0.1875 0.97266v0.25781h-5.3438q0.11719-0.62109 0.35156-1.125 0.23438-0.50391 0.58594-0.86719 0.33984-0.36328 0.79687-0.55078 0.45704-0.19922 1.0078-0.19922zm8.6836 15.152h3.2578v-5.9766q0.22266 0.24609 0.46875 0.44531 0.2461 0.19922 0.51563 0.36328 0.45703 0.25781 0.98437 0.38672 0.53906 0.14062 1.1719 0.14062 1.1953 0 2.1211-0.49219 0.92578-0.49219 1.5586-1.3594 0.6211-0.85547 0.9375-2.0391 0.32813-1.1836 0.32813-2.5664v-0.24609q0-1.4414-0.32813-2.625-0.3164-1.1953-0.94921-2.0508-0.63282-0.84375-1.5586-1.3008-0.92578-0.46875-2.1328-0.46875-0.58594 0-1.1016 0.12891-0.50391 0.11719-0.92578 0.33984-0.35157 0.1875-0.65625 0.44531-0.30469 0.24609-0.5625 0.5625l-0.11719-1.2422h-3.0117zm8.0859-11.344v0.24609q0 0.78516-0.14063 1.4883-0.14062 0.69141-0.44531 1.2188t-0.79688 0.83203q-0.48046 0.30469-1.1719 0.30469-0.43359 0-0.78516-0.08203-0.35156-0.09375-0.62109-0.25781-0.28125-0.17578-0.50391-0.42188-0.21093-0.24609-0.36328-0.55078v-5.2969q0.16406-0.32812 0.38672-0.57422 0.23438-0.24609 0.53906-0.41016 0.26953-0.14062 0.59766-0.21094 0.32812-0.08203 0.72656-0.08203 0.69141 0 1.1719 0.29297 0.49218 0.29297 0.80859 0.79688 0.30469 0.51562 0.44531 1.2188 0.15235 0.69141 0.15235 1.4883zm12.246-9.3164h-3.2578v3.1055h-2.8945v2.4023h2.8945v5.7656q0 1.2539 0.32812 2.1562 0.32813 0.89062 0.9375 1.4648 0.59766 0.58594 1.4414 0.86719 0.85547 0.26953 1.8984 0.26953 0.53906 0 1.0898-0.05859 0.5625-0.04687 1.0781-0.14062 0.51562-0.09375 0.97265-0.23438 0.45703-0.15234 0.79688-0.35156l-0.31641-2.2383q-0.22266 0.05859-0.53906 0.11719-0.30469 0.05859-0.65625 0.10547-0.36328 0.05859-0.76172 0.09375-0.38672 0.03516-0.76172 0.03516-0.51562 0-0.9375-0.11719-0.41016-0.11719-0.70312-0.39844-0.29297-0.26953-0.45704-0.72656-0.15234-0.46875-0.15234-1.1602v-5.4492h4.7344v-2.4023h-4.7344z" />
</svg>
