<svg xmlns="http://www.w3.org/2000/svg" viewBox="0 0 48 48">
    <path d="M24.922 6.001c-4.9691 0-9.2303 1.8822-12.783 5.6459-3.5524 3.7645-5.3287 8.2551-5.3287 13.472s1.552 9.3356 4.6576 12.353c3.1062 3.0182 6.8513 4.5279 11.236 4.5279 1.615 0 2.9752-0.13608 4.0811-0.40968 1.1058-0.26142 2.0627-0.66465 2.8699-1.2118v-3.4464c-0.77065 0.44692-1.721 0.82579-2.8513 1.1359-1.1181 0.32374-2.4846 0.48488-4.0996 0.48488-3.4164 0-6.1988-1.1366-8.3483-3.4099-2.1365-2.2611-3.2043-5.497-3.2043-9.7073 0-4.5594 1.3163-8.3784 3.95-11.46 2.6335-3.0934 5.9067-4.6396 9.8198-4.6396 3.9507 0 7.0124 1.2361 9.1862 3.7086 2.1867 2.4595 3.2803 5.4096 3.2803 8.851 0 2.7696-0.44764 4.9685-1.3422 6.5964-0.88239 1.6144-2.0248 2.4158-3.4286 2.4037-0.95687 0-1.696-0.26715-2.2174-0.80217-0.3266-0.34164-0.49276-0.86663-0.50279-1.5714l2.1867-12.412h-3.9192l-2.1566 12.151c-0.42543 0.6754-0.93824 1.2248-1.5378 1.6501-0.60018 0.41254-1.2505 0.61882-1.9503 0.61882-0.8129 0-1.4132-0.20627-1.8006-0.61882-0.37458-0.41254-0.46268-1.1818-0.26214-2.3062l2.0248-11.496h-3.9005l-2.1379 12.096c-0.33662 1.9253-0.14324 3.3126 0.58157 4.1626 0.72481 0.83798 1.8192 1.2563 3.2817 1.2563 1.1253 0 2.1379-0.22489 3.0382-0.67468 0.89958-0.46268 1.6437-1.075 2.231-1.8378l-0.33734 2.1379h6.9129c2.6214 0 4.7822-0.67755 6.484-2.9135 1.7018-2.236 2.5526-5.1561 2.5526-8.7587 0-4.3475-1.4898-8.031-4.4713-11.05-2.9701-3.0182-6.9008-4.5279-11.795-4.5279z" />
</svg>
