<svg xmlns="http://www.w3.org/2000/svg" viewBox="0 0 24 24">
    <path d="m12 21q-3.75 0-6.375-2.625t-2.625-6.375 2.625-6.375 6.375-2.625q0.35 0 0.6875 0.025t0.6625 0.075q-1.025 0.725-1.6375 1.8875t-0.6125 2.5125q0 2.25 1.575 3.825t3.825 1.575q1.375 0 2.525-0.6125t1.875-1.6375q0.05 0.325 0.075 0.6625t0.025 0.6875q0 3.75-2.625 6.375t-6.375 2.625zm0-2q2.2 0 3.95-1.2125t2.55-3.1625q-0.5 0.125-1 0.2t-1 0.075q-3.075 0-5.2375-2.1625t-2.1625-5.2375q0-0.5 0.075-1t0.2-1q-1.95 0.8-3.1625 2.55t-1.2125 3.95q0 2.9 2.05 4.95t4.95 2.05z" />
</svg>
