<svg xmlns="http://www.w3.org/2000/svg" viewBox="0 0 24 24">
    <path d="m12 15q1.25 0 2.125-0.875t0.875-2.125-0.875-2.125-2.125-0.875-2.125 0.875-0.875 2.125 0.875 2.125 2.125 0.875zm0 2q-2.075 0-3.5375-1.4625t-1.4625-3.5375 1.4625-3.5375 3.5375-1.4625 3.5375 1.4625 1.4625 3.5375-1.4625 3.5375-3.5375 1.4625zm-7-4h-4v-2h4zm18 0h-4v-2h4zm-12-8v-4h2v4zm0 18v-4h2v4zm-4.6-15.25-2.525-2.425 1.425-1.475 2.4 2.5zm12.3 12.4-2.425-2.525 1.325-1.375 2.525 2.425zm-2.45-13.75 2.425-2.525 1.475 1.425-2.5 2.4zm-12.4 12.3 2.525-2.425 1.375 1.325-2.425 2.525z" />
</svg>
